<?xml version="1.0" encoding="UTF-8" standalone="no"?>
<!-- Created with Inkscape (http://www.inkscape.org/) -->
<svg
   xmlns:dc="http://purl.org/dc/elements/1.1/"
   xmlns:cc="http://web.resource.org/cc/"
   xmlns:rdf="http://www.w3.org/1999/02/22-rdf-syntax-ns#"
   xmlns:svg="http://www.w3.org/2000/svg"
   xmlns="http://www.w3.org/2000/svg"
   xmlns:sodipodi="http://sodipodi.sourceforge.net/DTD/sodipodi-0.dtd"
   xmlns:inkscape="http://www.inkscape.org/namespaces/inkscape"
   width="521"
   height="216"
   id="svg2"
   sodipodi:version="0.32"
   inkscape:version="0.45.1"
   version="1.0"
   inkscape:output_extension="org.inkscape.output.svg.inkscape">
  <g
     inkscape:label="Layer 1"
     inkscape:groupmode="layer"
     id="layer1"
     transform="translate(-75.381529,-666.58662)">
    <path
       style="fill:#253649;fill-rule:nonzero;stroke:none"
       d="M 586.53002,713.92522 C 585.07706,699.84965 576.00837,676.26792 531.66343,676.26792 L 338.89524,676.39047 C 334.3434,676.39047 330.00165,677.59834 326.22021,679.75172 C 322.40378,677.58092 318.06204,676.39047 313.58018,676.39047 L 243.85034,676.46045 C 239.40362,676.46045 235.20199,677.58092 231.52552,679.59418 C 227.77893,677.58092 223.59487,676.46045 219.2357,676.46045 L 149.17308,676.49544 C 137.1809,676.51301 126.76423,684.75874 124.0157,696.43584 L 116.69776,727.45805 C 116.24258,729.43632 115.99749,731.43202 115.99749,733.41029 C 115.99749,739.20514 117.92335,744.8773 121.56468,749.4817 C 123.01778,751.30244 124.71597,752.80796 126.53671,754.17351 C 124.27836,764.90525 121.98487,775.88208 121.98487,775.88208 C 121.26717,779.52341 119.13122,788.67951 118.55349,791.34063 L 117.71325,791.34063 C 105.65095,791.3582 95.216852,799.7089 92.52074,811.45599 L 85.728116,841.25276 C 85.272932,843.17847 85.062836,845.08676 85.062836,847.03004 C 85.062836,852.82474 87.041108,858.53204 90.717572,863.15386 C 95.602052,869.31634 103.07752,872.92268 110.95562,872.90525 L 152.41192,872.87012 C 187.47808,872.85269 205.31767,855.69596 214.40378,836.4384 C 219.14815,840.83256 225.43303,843.35357 231.99813,843.35357 L 286.91728,843.31858 C 294.83037,843.31858 302.0082,839.67711 306.80512,833.9174 C 311.72445,839.83464 319.0074,843.26602 326.72796,843.26602 L 381.31432,843.26602 C 385.37599,843.26602 389.08744,842.04058 392.55381,840.32482 C 396.17772,842.18055 400.16925,843.2486 404.35346,843.2486 L 459.60511,843.23103 C 463.73676,843.23103 467.50077,841.9706 471.00213,840.20228 C 474.66103,842.11056 478.75768,843.21346 482.99431,843.21346 L 537.58082,843.17847 C 549.538,843.17847 559.91954,834.95031 562.72077,823.34319 L 583.23876,738.01469 C 583.1862,738.17223 583.16877,738.34733 583.13378,738.52229 C 587.3704,722.27592 586.75768,716.21856 586.53002,713.92522"
       id="path7856" />
    <path
       style="fill:none;stroke:#ffffff;stroke-width:19.36261368;stroke-linecap:butt;stroke-linejoin:miter;stroke-miterlimit:4"
       d="M 586.53002,713.92522 C 585.07706,699.84965 576.00837,676.26792 531.66343,676.26792 L 338.89524,676.39047 C 334.3434,676.39047 330.00165,677.59834 326.22021,679.75172 C 322.40378,677.58092 318.06204,676.39047 313.58018,676.39047 L 243.85034,676.46045 C 239.40362,676.46045 235.20199,677.58092 231.52552,679.59418 C 227.77893,677.58092 223.59487,676.46045 219.2357,676.46045 L 149.17308,676.49544 C 137.1809,676.51301 126.76423,684.75874 124.0157,696.43584 L 116.69776,727.45805 C 116.24258,729.43632 115.99749,731.43202 115.99749,733.41029 C 115.99749,739.20514 117.92335,744.8773 121.56468,749.4817 C 123.01778,751.30244 124.71597,752.80796 126.53671,754.17351 C 124.27836,764.90525 121.98487,775.88208 121.98487,775.88208 C 121.26717,779.52341 119.13122,788.67951 118.55349,791.34063 L 117.71325,791.34063 C 105.65095,791.3582 95.216852,799.7089 92.52074,811.45599 L 85.728116,841.25276 C 85.272932,843.17847 85.062836,845.08676 85.062836,847.03004 C 85.062836,852.82474 87.041108,858.53204 90.717572,863.15386 C 95.602052,869.31634 103.07752,872.92268 110.95562,872.90525 L 152.41192,872.87012 C 187.47808,872.85269 205.31767,855.69596 214.40378,836.4384 C 219.14815,840.83256 225.43303,843.35357 231.99813,843.35357 L 286.91728,843.31858 C 294.83037,843.31858 302.0082,839.67711 306.80512,833.9174 C 311.72445,839.83464 319.0074,843.26602 326.72796,843.26602 L 381.31432,843.26602 C 385.37599,843.26602 389.08744,842.04058 392.55381,840.32482 C 396.17772,842.18055 400.16925,843.2486 404.35346,843.2486 L 459.60511,843.23103 C 463.73676,843.23103 467.50077,841.9706 471.00213,840.20228 C 474.66103,842.11056 478.75768,843.21346 482.99431,843.21346 L 537.58082,843.17847 C 549.538,843.17847 559.91954,834.95031 562.72077,823.34319 L 583.23876,738.01469 C 583.1862,738.17223 583.16877,738.34733 583.13378,738.52229 C 587.3704,722.27592 586.75768,716.21856 586.53002,713.92522 z "
       stroke-miterlimit="4"
       id="path7858" />
    <path
       style="fill:#fcd13b;fill-rule:nonzero;stroke:none"
       d="M 194.58592,815.69276 C 189.56148,837.45375 185.28986,846.97748 152.39436,846.97748 L 110.93805,847.03004 L 117.74824,817.21584 L 138.80896,817.18085 C 146.17946,789.55488 144.34116,792.84615 157.33125,733.41029 L 141.85514,733.41029 L 149.19064,702.38808 L 219.25312,702.3181 L 194.58592,815.69276"
       id="path7860" />
    <path
       style="fill:none;stroke:#ffffff;stroke-width:19.36261368;stroke-linecap:butt;stroke-linejoin:miter;stroke-miterlimit:4"
       d="M 194.58592,815.69276 C 189.56148,837.45375 185.28986,846.97748 152.39436,846.97748 L 110.93805,847.03004 L 117.74824,817.21584 L 138.80896,817.18085 C 146.17946,789.55488 144.34116,792.84615 157.33125,733.41029 L 141.85514,733.41029 L 149.19064,702.38808 L 219.25312,702.3181 L 194.58592,815.69276 z "
       stroke-miterlimit="4"
       id="path7862" />
    <path
       style="fill:#fcd13b;fill-rule:nonzero;stroke:none"
       d="M 286.89972,817.42594 L 231.96314,817.47836 L 251.30824,733.35788 L 236.83005,733.35788 L 243.85034,702.3181 L 313.59775,702.28311 C 291.59152,795.68237 286.89972,817.42594 286.89972,817.42594"
       id="path7864" />
    <path
       style="fill:none;stroke:#ffffff;stroke-width:19.36261368;stroke-linecap:butt;stroke-linejoin:miter;stroke-miterlimit:4"
       d="M 286.89972,817.42594 L 231.96314,817.47836 L 251.30824,733.35788 L 236.83005,733.35788 L 243.85034,702.3181 L 313.59775,702.28311 C 291.59152,795.68237 286.89972,817.42594 286.89972,817.42594 z "
       stroke-miterlimit="4"
       id="path7866" />
    <path
       style="fill:#fcd13b;fill-rule:nonzero;stroke:none"
       d="M 558.08138,731.95733 L 537.56325,817.3034 L 482.94189,817.32082 L 502.61964,733.21776 L 479.24786,733.23533 L 459.58768,817.33839 L 404.33589,817.37338 L 423.99621,733.27032 L 400.97464,733.28775 L 381.31432,817.3908 L 326.71039,817.40837 L 346.05549,733.30532 L 331.55988,733.30532 L 338.91266,702.26554 L 531.66343,702.143 C 540.2068,702.143 559.32439,702.38808 560.77749,716.56877 C 561.16255,720.24524 558.08138,731.95733 558.08138,731.95733"
       id="path7868" />
    <path
       style="fill:none;stroke:#ffffff;stroke-width:19.36261368;stroke-linecap:butt;stroke-linejoin:miter;stroke-miterlimit:4"
       d="M 558.08138,731.95733 L 537.56325,817.3034 L 482.94189,817.32082 L 502.61964,733.21776 L 479.24786,733.23533 L 459.58768,817.33839 L 404.33589,817.37338 L 423.99621,733.27032 L 400.97464,733.28775 L 381.31432,817.3908 L 326.71039,817.40837 L 346.05549,733.30532 L 331.55988,733.30532 L 338.91266,702.26554 L 531.66343,702.143 C 540.2068,702.143 559.32439,702.38808 560.77749,716.56877 C 561.16255,720.24524 558.08138,731.95733 558.08138,731.95733 z "
       stroke-miterlimit="4"
       id="path7870" />
    <path
       style="fill:#363a47;fill-rule:nonzero;stroke:none"
       d="M 586.53002,713.92522 C 585.07706,699.84965 576.00837,676.26792 531.66343,676.26792 L 338.89524,676.39047 C 334.3434,676.39047 330.00165,677.59834 326.22021,679.75172 C 322.40378,677.58092 318.06204,676.39047 313.58018,676.39047 L 243.85034,676.46045 C 239.40362,676.46045 235.20199,677.58092 231.52552,679.59418 C 227.77893,677.58092 223.59487,676.46045 219.2357,676.46045 L 149.17308,676.49544 C 137.1809,676.51301 126.76423,684.75874 124.0157,696.43584 L 116.69776,727.45805 C 116.24258,729.43632 115.99749,731.43202 115.99749,733.41029 C 115.99749,739.20514 117.92335,744.8773 121.56468,749.4817 C 123.01778,751.30244 124.71597,752.80796 126.53671,754.17351 C 124.27836,764.90525 121.98487,775.88208 121.98487,775.88208 C 121.26717,779.52341 119.13122,788.67951 118.55349,791.34063 L 117.71325,791.34063 C 105.65095,791.3582 95.216852,799.7089 92.52074,811.45599 L 85.728116,841.25276 C 85.272932,843.17847 85.062836,845.08676 85.062836,847.03004 C 85.062836,852.82474 87.041108,858.53204 90.717572,863.15386 C 95.602052,869.31634 103.07752,872.92268 110.95562,872.90525 L 152.41192,872.87012 C 187.47808,872.85269 205.31767,855.69596 214.40378,836.4384 C 219.14815,840.83256 225.43303,843.35357 231.99813,843.35357 L 286.91728,843.31858 C 294.83037,843.31858 302.0082,839.67711 306.80512,833.9174 C 311.72445,839.83464 319.0074,843.26602 326.72796,843.26602 L 381.31432,843.26602 C 385.37599,843.26602 389.08744,842.04058 392.55381,840.32482 C 396.17772,842.18055 400.16925,843.2486 404.35346,843.2486 L 459.60511,843.23103 C 463.73676,843.23103 467.50077,841.9706 471.00213,840.20228 C 474.66103,842.11056 478.75768,843.21346 482.99431,843.21346 L 537.58082,843.17847 C 549.538,843.17847 559.91954,834.95031 562.72077,823.34319 L 583.23876,738.01469 C 583.1862,738.17223 583.16877,738.34733 583.13378,738.52229 C 587.3704,722.27592 586.75768,716.21856 586.53002,713.92522"
       id="path7872" />
    <path
       style="fill:#fcc607;fill-rule:nonzero;stroke:none"
       d="M 194.58592,815.69276 C 189.56148,837.45375 185.28986,846.97748 152.39436,846.97748 L 110.93805,847.03004 L 117.74824,817.21584 L 138.80896,817.18085 C 146.17946,789.55488 144.34116,792.84615 157.33125,733.41029 L 141.85514,733.41029 L 149.19064,702.38808 L 219.25312,702.3181 L 194.58592,815.69276"
       id="path7874" />
    <path
       style="fill:#fcc607;fill-rule:nonzero;stroke:none"
       d="M 286.89972,817.42594 L 231.96314,817.47836 L 251.30824,733.35788 L 236.83005,733.35788 L 243.85034,702.3181 L 313.59775,702.28311 C 291.59152,795.68237 286.89972,817.42594 286.89972,817.42594"
       id="path7876" />
    <path
       style="fill:#fcc607;fill-rule:nonzero;stroke:none"
       d="M 558.08138,731.95733 L 537.56325,817.3034 L 482.94189,817.32082 L 502.61964,733.21776 L 479.24786,733.23533 L 459.58768,817.33839 L 404.33589,817.37338 L 423.99621,733.27032 L 400.97464,733.28775 L 381.31432,817.3908 L 326.71039,817.40837 L 346.05549,733.30532 L 331.55988,733.30532 L 338.91266,702.26554 L 531.66343,702.143 C 540.2068,702.143 559.32439,702.38808 560.77749,716.56877 C 561.16255,720.24524 558.08138,731.95733 558.08138,731.95733"
       id="path7878" />
  </g>
</svg>
